<?xml version="1.0" encoding="UTF-8"?>
<svg id="_ÎÓÈ_1" data-name="—ÎÓÈ_1" xmlns="http://www.w3.org/2000/svg" viewBox="0 0 280.38 153.72">
  <defs>
    <style>
      .cls-1 {
        fill: #fff;
      }

      .cls-2 {
        fill: none;
        stroke: #fff;
        stroke-miterlimit: 10;
        stroke-width: 10px;
      }
    </style>
  </defs>
  <g>
    <g>
      <path class="cls-1" d="M144.03,69.88c9.29-9.41,18.58-18.82,27.86-28.24,1.82-1.85,1.98-5.18,0-7s-5.06-1.97-7,0c-9.29,9.41-18.58,18.82-27.86,28.24-1.82,1.85-1.98,5.18,0,7s5.06,1.97,7,0h0Z"/>
      <path class="cls-1" d="M143.35,62.88c-9.29-9.41-18.58-18.82-27.86-28.24-1.82-1.85-5.2-1.96-7,0s-1.94,5.03,0,7c9.29,9.41,18.58,18.82,27.86,28.24,1.82,1.85,5.2,1.96,7,0s1.94-5.03,0-7h0Z"/>
    </g>
    <g>
      <path class="cls-1" d="M137.03,90.83c9.29,9.41,18.58,18.82,27.86,28.24,1.82,1.85,5.2,1.96,7,0s1.94-5.03,0-7c-9.29-9.41-18.58-18.82-27.86-28.24-1.82-1.85-5.2-1.96-7,0s-1.94,5.03,0,7h0Z"/>
      <path class="cls-1" d="M136.35,83.83c-9.29,9.41-18.58,18.82-27.86,28.24-1.82,1.85-1.98,5.18,0,7s5.06,1.97,7,0c9.29-9.41,18.58-18.82,27.86-28.24,1.82-1.85,1.98-5.18,0-7s-5.06-1.97-7,0h0Z"/>
    </g>
  </g>
  <g>
    <path class="cls-2" d="M50.25,85.84c-4.64-4.69-4.64-12.37,0-17.06l25.14-25.4c4.64-4.69,12.24-4.69,16.88,0l24.23,24.48c4.64,4.69,4.64,12.37,0,17.06l-25.14,25.4c-4.64,4.69-12.24,4.69-16.88,0l-24.23-24.48Z"/>
    <path class="cls-2" d="M163.89,85.84c-4.64-4.69-4.64-12.37,0-17.06l25.14-25.4c4.64-4.69,12.24-4.69,16.88,0l24.23,24.48c4.64,4.69,4.64,12.37,0,17.06l-25.14,25.4c-4.64,4.69-12.24,4.69-16.88,0l-24.23-24.48Z"/>
  </g>
</svg>